<svg width="20" height="21" viewBox="0 0 20 21" fill="none" xmlns="http://www.w3.org/2000/svg">
<path d="M18.3337 8.83332H1.66699M9.16699 12.1667H5.00033M1.66699 7.33332L1.66699 13.6667C1.66699 14.6001 1.66699 15.0668 1.84865 15.4233C2.00844 15.7369 2.2634 15.9919 2.57701 16.1517C2.93353 16.3333 3.40024 16.3333 4.33366 16.3333L15.667 16.3333C16.6004 16.3333 17.0671 16.3333 17.4236 16.1517C17.7372 15.9919 17.9922 15.7369 18.152 15.4233C18.3337 15.0668 18.3337 14.6001 18.3337 13.6667V7.33332C18.3337 6.3999 18.3337 5.93319 18.152 5.57667C17.9922 5.26307 17.7372 5.0081 17.4236 4.84831C17.0671 4.66666 16.6004 4.66666 15.667 4.66666L4.33366 4.66666C3.40024 4.66666 2.93353 4.66666 2.57701 4.84831C2.2634 5.0081 2.00844 5.26307 1.84865 5.57667C1.66699 5.93319 1.66699 6.3999 1.66699 7.33332Z" stroke="#237AE0" stroke-width="2" stroke-linecap="round" stroke-linejoin="round"/>
</svg>
