<svg width="20" height="21" viewBox="0 0 20 21" fill="none" xmlns="http://www.w3.org/2000/svg">
<path d="M7.91634 18.8333H12.083M6.66634 2.16666H13.333M9.99967 4.66666V2.16666M3.33301 10.5H16.6663M14.1663 16.3333L15.4163 18.8333M5.83301 16.3333L4.58301 18.8333M7.08301 13.4167H7.09134M12.9163 13.4167H12.9247M7.33301 16.3333H12.6663C14.0665 16.3333 14.7665 16.3333 15.3013 16.0608C15.7717 15.8212 16.1542 15.4387 16.3939 14.9683C16.6663 14.4335 16.6663 13.7335 16.6663 12.3333V8.66666C16.6663 7.26653 16.6663 6.56646 16.3939 6.03168C16.1542 5.56128 15.7717 5.17882 15.3013 4.93914C14.7665 4.66666 14.0665 4.66666 12.6663 4.66666H7.33301C5.93288 4.66666 5.23281 4.66666 4.69803 4.93914C4.22763 5.17882 3.84517 5.56128 3.60549 6.03168C3.33301 6.56646 3.33301 7.26653 3.33301 8.66666V12.3333C3.33301 13.7335 3.33301 14.4335 3.60549 14.9683C3.84517 15.4387 4.22763 15.8212 4.69803 16.0608C5.23281 16.3333 5.93288 16.3333 7.33301 16.3333ZM7.49967 13.4167C7.49967 13.6468 7.31313 13.8333 7.08301 13.8333C6.85289 13.8333 6.66634 13.6468 6.66634 13.4167C6.66634 13.1865 6.85289 13 7.08301 13C7.31313 13 7.49967 13.1865 7.49967 13.4167ZM13.333 13.4167C13.333 13.6468 13.1465 13.8333 12.9163 13.8333C12.6862 13.8333 12.4997 13.6468 12.4997 13.4167C12.4997 13.1865 12.6862 13 12.9163 13C13.1465 13 13.333 13.1865 13.333 13.4167Z" stroke="#237AE0" stroke-width="2" stroke-linecap="round" stroke-linejoin="round"/>
</svg>
