<svg width="32.000000" height="32.000000" viewBox="0 0 32 32" fill="none" xmlns="http://www.w3.org/2000/svg"
	xmlns:xlink="http://www.w3.org/1999/xlink">
	<defs>
		<clipPath id="clip3_1969">
			<rect id="message-chat-square" width="32.000000" height="32.000000" fill="white" fill-opacity="0" />
		</clipPath>
	</defs>
	<rect id="message-chat-square" width="32.000000" height="32.000000" fill="#FFFFFF" fill-opacity="0" />
	<g clip-path="url(#clip3_1969)">
		<path id="Icon"
			d="M17.6 14.6667C16.1065 14.6667 15.3598 14.6667 14.7893 14.9573C14.2876 15.213 13.8796 15.621 13.624 16.1227C13.3333 16.6931 13.3333 17.4399 13.3333 18.9333L13.3333 22.2858C13.3333 23.7792 13.3333 24.5259 13.624 25.0964C13.8796 25.5981 14.2876 26.0061 14.7893 26.2618C15.3598 26.5524 16.1065 26.5524 17.6 26.5524L19.9959 26.5524C20.4927 26.5524 20.7411 26.5524 20.9807 26.5966C21.1935 26.6357 21.4006 26.7007 21.5976 26.7899C21.8196 26.8904 22.0235 27.0323 22.4315 27.3159L25.3333 29.3334L25.3333 26.5524C26.5758 26.5524 27.1971 26.5524 27.6871 26.3494C28.3405 26.0787 28.8597 25.5596 29.1303 24.9062C29.3333 24.4161 29.3333 23.7949 29.3333 22.5524L29.3333 18.9333C29.3333 17.4399 29.3333 16.6931 29.0427 16.1227C28.787 15.621 28.3791 15.213 27.8773 14.9573C27.3069 14.6667 26.5601 14.6667 25.0667 14.6667L17.6 14.6667ZM13.3333 20L9.23297 24.1516C8.66104 24.7307 8.37506 25.0203 8.12927 25.0406C7.91602 25.0584 7.70721 24.9727 7.56793 24.8102C7.40741 24.6229 7.40741 24.216 7.40741 23.4021L7.40741 21.3221C7.40741 20.592 6.80942 20.0636 6.08691 19.9578C4.33832 19.7017 2.96503 18.3284 2.70889 16.5798C2.66666 16.2914 2.66666 15.9474 2.66666 15.2593L2.66666 9.06671C2.66666 6.82648 2.66666 5.70636 3.10263 4.85071C3.48611 4.09808 4.09805 3.48615 4.85071 3.10266C5.70633 2.66669 6.82645 2.66669 9.06665 2.66669L18.9333 2.66669C21.1735 2.66669 22.2936 2.66669 23.1493 3.10266C23.9019 3.48615 24.5139 4.09808 24.8973 4.85071C25.3333 5.70636 25.3333 6.82648 25.3333 9.06671L25.3333 14.6667"
			stroke="#237AE0" stroke-opacity="1.000000" stroke-width="2.000000" stroke-linejoin="round"
			stroke-linecap="round" />
	</g>
</svg>