<svg width="32.000000" height="32.000000" viewBox="0 0 32 32" fill="none" xmlns="http://www.w3.org/2000/svg" xmlns:xlink="http://www.w3.org/1999/xlink">
	<defs>
		<clipPath id="clip3_1975">
			<rect id="calendar-check-01" width="32.000000" height="32.000000" fill="white" fill-opacity="0"/>
		</clipPath>
	</defs>
	<rect id="calendar-check-01" width="32.000000" height="32.000000" fill="#FFFFFF" fill-opacity="0"/>
	<g clip-path="url(#clip3_1975)">
		<path id="Icon" d="M21.6 5.33337C23.8402 5.33337 24.9603 5.33337 25.816 5.76935C26.5686 6.15283 27.1805 6.76477 27.564 7.5174C28 8.37305 28 9.49316 28 11.7333L28 22.9333C28 25.1736 28 26.2936 27.564 27.1493C27.1805 27.902 26.5686 28.5139 25.816 28.8974C24.9603 29.3334 23.8402 29.3334 21.6 29.3334L10.4 29.3334C8.15979 29.3334 7.03967 29.3334 6.18402 28.8974C5.4314 28.5139 4.81946 27.902 4.43597 27.1493C4 26.2936 4 25.1736 4 22.9333L4 11.7333C4 9.49316 4 8.37305 4.43597 7.5174C4.81946 6.76477 5.4314 6.15283 6.18402 5.76935C7.03967 5.33337 8.15979 5.33337 10.4 5.33337L21.6 5.33337ZM28 13.3334L4 13.3334M21.3333 2.66669L21.3333 8M10.6667 2.66669L10.6667 8M12 21.3334L14.6667 24L20.6667 18" stroke="#237AE0" stroke-opacity="1.000000" stroke-width="2.000000" stroke-linejoin="round"/>
	</g>
</svg>
