<svg width="32.000000" height="32.000000" viewBox="0 0 32 32" fill="none" xmlns="http://www.w3.org/2000/svg" xmlns:xlink="http://www.w3.org/1999/xlink">
	<defs>
		<clipPath id="clip3_2603">
			<rect id="building-07" width="32.000000" height="32.000000" fill="white" fill-opacity="0"/>
		</clipPath>
	</defs>
	<rect id="building-07" width="32.000000" height="32.000000" fill="#FFFFFF" fill-opacity="0"/>
	<g clip-path="url(#clip3_2603)">
		<path id="Icon" d="M4.00012 28L4.00012 16.8C4.00012 16.0533 4.00012 15.6799 4.14539 15.3947C4.27319 15.1438 4.47717 14.9398 4.72815 14.812C5.01331 14.6667 5.38672 14.6667 6.13342 14.6667L10.0001 14.6667M22.0001 14.6667L25.8667 14.6667C26.6135 14.6667 26.9868 14.6667 27.2721 14.812C27.5229 14.9398 27.7269 15.1438 27.8547 15.3947C28.0001 15.6799 28.0001 16.0533 28.0001 16.8L28.0001 28M10.0001 28L10.0001 8.26666C10.0001 6.77319 10.0001 6.02643 10.2908 5.45605C10.5464 4.95428 10.9543 4.54633 11.4561 4.29065C12.0265 4 12.7733 4 14.2667 4L17.7334 4C19.2269 4 19.9736 4 20.5441 4.29065C21.0458 4.54633 21.4537 4.95428 21.7095 5.45605C22.0001 6.02643 22.0001 6.77319 22.0001 8.26666L22.0001 28M29.3334 28L2.66675 28M14.6667 9.33331L17.3334 9.33331M14.6667 14.6667L17.3334 14.6667M14.6667 20L17.3334 20" stroke="#237AE0" stroke-opacity="1.000000" stroke-width="2.000000" stroke-linejoin="round"/>
	</g>
</svg>
