<svg width="196.000000" height="40.000000" viewBox="0 0 196 40" fill="none" xmlns="http://www.w3.org/2000/svg" xmlns:xlink="http://www.w3.org/1999/xlink">
	<desc>
			Created with Pixso.
	</desc>
	<defs/>
	<path id="Vector" d="M19.9934 2.75862C23.4023 2.75862 26.7346 3.76981 29.569 5.66431C32.4034 7.55882 34.6125 10.2516 35.9171 13.402C37.2216 16.5525 37.5629 20.0191 36.8979 23.3636C36.2328 26.7081 34.5913 29.7802 32.1808 32.1915C29.7704 34.6027 26.6993 36.2448 23.3559 36.9101C20.0125 37.5753 16.547 37.2339 13.3976 35.929C10.2482 34.624 7.55634 32.4141 5.66245 29.5788C3.76859 26.7435 2.75772 23.41 2.75772 20C2.75824 15.4275 4.57431 11.0424 7.80649 7.80908C11.0387 4.57581 15.4224 2.75914 19.9934 2.75862ZM19.9934 0C16.0391 0 12.1736 1.17298 8.88565 3.37061C5.59778 5.56824 3.03516 8.69181 1.52191 12.3463C0.00866699 16.0009 -0.387268 20.0222 0.384186 23.9018C1.15561 27.7814 3.05981 31.3451 5.85593 34.1421C8.65207 36.9392 12.2145 38.844 16.0929 39.6157C19.9712 40.3874 23.9912 39.9913 27.6445 38.4776C31.2978 36.9638 34.4203 34.4004 36.6172 31.1114C38.8141 27.8224 39.9868 23.9556 39.9868 20C39.981 14.6974 37.8727 9.61368 34.1245 5.8642C30.3763 2.11471 25.2942 0.0057373 19.9934 0Z" fill="#3792E7" fill-opacity="1.000000" fill-rule="nonzero"/>
	<path id="Vector" d="M5.43069 19.9842C5.48386 20.0276 5.12537 19.3931 5.01309 19.0778C4.74274 18.3274 4.60928 17.5345 4.61914 16.7369C4.67822 14.1241 5.77737 12.065 7.96777 10.599C9.14246 9.81785 10.5265 9.41178 11.9369 9.43448C14.0071 9.43448 15.7603 10.2227 17.2159 11.6808C18.0748 12.5465 18.9355 13.4095 19.7983 14.2699C19.8417 14.3133 19.8929 14.3527 19.9579 14.4099C20.0209 14.3527 20.0859 14.2975 20.145 14.2404C21.1102 13.2788 22.0577 12.2995 23.0446 11.3616C23.9787 10.4719 25.1437 9.86232 26.407 9.60196C27.3023 9.41281 28.2242 9.38546 29.1292 9.52118C29.9774 9.64997 30.7947 9.93384 31.5403 10.3586C32.7784 11.0465 33.7895 12.0805 34.4496 13.334C34.9488 14.258 35.2266 15.2853 35.2612 16.335C35.3276 17.3715 35.1683 18.4101 34.7942 19.379C34.4201 20.3479 33.8401 21.2241 33.0944 21.9468C31.0813 23.9606 29.0675 25.9724 27.0531 27.9823C26.6906 28.3409 26.3105 28.6798 25.952 29.0424C24.6059 30.398 23.2612 31.7557 21.9178 33.1153C21.6343 33.4448 21.2801 33.7061 20.8817 33.8798C19.8279 34.2621 18.9119 34.0434 18.1122 33.2552C16.82 31.9691 15.5311 30.6785 14.2455 29.3832C11.774 26.9084 9.30002 24.4374 6.82333 21.9704C6.24326 21.3977 5.77145 20.7248 5.43069 19.9842Z" fill="#3792E7" fill-opacity="1.000000" fill-rule="nonzero"/>
	<path id="Vector" d="M6.66183 22.6168C6.63425 22.0966 6.6185 22.8256 6.58304 22.3764C6.49637 21.3005 5.40115 19.9271 4.33551 19.9921C3.83078 20.0271 3.35941 20.2569 3.0209 20.633C2.6824 21.0091 2.50327 21.5021 2.52133 22.0079C2.53217 22.4392 2.51834 22.8708 2.47995 23.3005C2.28299 25.5488 1.92645 27.1448 1.36111 29.3182C0.780029 31.5488 1.67038 33.8503 3.68549 34.9635C4.92383 35.6506 6.17136 36.3251 7.42807 36.9872C8.5433 37.578 9.84503 37.71 11.0561 37.3553C12.2672 37.0005 13.2921 36.1869 13.9126 35.0877C14.9605 33.2158 15.971 31.3222 16.9756 29.4266C17.1125 29.1733 17.1906 28.8924 17.2041 28.6047C17.2176 28.3171 17.1661 28.0301 17.0535 27.7651C16.9409 27.5 16.7701 27.2638 16.5537 27.0739C16.3373 26.8839 16.0809 26.7452 15.8036 26.668C15.6401 26.6187 15.4707 26.601 15.3033 26.5675C15.6401 25.4483 14.9881 24.1281 13.497 24.0059C13.824 22.865 13.1877 21.6059 11.7025 21.4305L11.8444 21.1685C12.4707 20.0079 13.1089 18.8532 13.7176 17.6828C13.8608 17.4085 13.9479 17.1084 13.9737 16.8C13.999 16.3643 13.8739 15.9331 13.6193 15.5787C13.3647 15.2243 12.996 14.9681 12.5751 14.8532C12.1553 14.7349 11.7079 14.7625 11.3058 14.9314C10.9036 15.1003 10.5706 15.4006 10.3611 15.7832C9.19235 17.935 8.02756 20.0887 6.8667 22.2443L6.66183 22.6168ZM17.3991 19.6453C17.4307 19.5764 17.4898 19.4483 17.5469 19.33C17.8945 18.5653 18.0807 17.7371 18.0939 16.8972C18.107 16.0572 17.9468 15.2236 17.6233 14.4483C17.2998 13.6731 16.8199 12.973 16.2136 12.3917C15.6074 11.8104 14.8877 11.3604 14.0998 11.07C9.75244 9.4936 5.26526 13.1783 5.9921 17.7498C6.10406 18.4636 6.3429 19.1516 6.6973 19.7813C6.86472 20.0769 7.12866 20.1754 7.37488 20.0315C7.62112 19.8877 7.66248 19.6217 7.50885 19.3379C7.46945 19.2631 7.42612 19.1921 7.39066 19.1172C6.51605 17.2177 6.63229 15.3833 7.87915 13.7025C9.52393 11.4837 12.4983 10.9892 14.8424 12.4749C16.9658 13.8207 17.7971 16.7645 16.6802 19.0207C16.1498 20.134 15.2377 21.0199 14.1096 21.5172C13.9362 21.5961 13.759 21.6926 13.7649 21.8956C13.7744 22.0558 13.8344 22.2089 13.9362 22.333C14.0029 22.3968 14.0889 22.4364 14.1806 22.4457C14.2723 22.455 14.3645 22.4333 14.4425 22.3842C15.7085 21.8308 16.7504 20.8656 17.3991 19.6453ZM15.5574 18.8177C15.6382 18.6207 15.7327 18.4473 15.7957 18.2522C16.3276 16.6365 16.0321 15.1744 14.8266 13.9783C13.6211 12.7823 12.1556 12.469 10.5699 13.0562C8.98422 13.6434 8.09387 14.865 7.91461 16.5655C7.86734 17.0207 8.03082 17.2591 8.37555 17.2828C8.72025 17.3064 8.86996 17.0857 8.9133 16.6483C9.03345 15.4069 9.65985 14.5064 10.8122 14.0355C11.3317 13.8002 11.9091 13.7233 12.4721 13.8145C13.0351 13.9056 13.5587 14.1606 13.9776 14.5478C15.4983 15.8522 15.3742 18.1557 13.7412 19.3754C13.4674 19.5724 13.3965 19.866 13.562 20.1025C13.6031 20.1618 13.6564 20.2118 13.7182 20.249C13.7801 20.2863 13.8491 20.3099 13.9208 20.3185C13.9925 20.3271 14.0652 20.3203 14.134 20.2987C14.2029 20.2771 14.2664 20.2411 14.3204 20.1931C14.8325 19.8354 15.2557 19.3648 15.5574 18.8177Z" fill="#FFFFFF" fill-opacity="1.000000" fill-rule="nonzero"/>
	<path id="Vector" d="M6.6619 22.6167L6.85889 22.2404C8.02237 20.0873 9.18716 17.9337 10.3533 15.7793C10.5628 15.3967 10.8958 15.0964 11.2979 14.9275C11.7 14.7586 12.1475 14.731 12.5673 14.8493C12.9882 14.9642 13.3569 15.2203 13.6115 15.5747C13.8661 15.9292 13.9912 16.3603 13.9659 16.7961C13.9401 17.1044 13.853 17.4045 13.7098 17.6788C13.1011 18.8492 12.4629 20.0039 11.8365 21.1645L11.6947 21.4266C13.1799 21.602 13.8162 22.8611 13.4892 24.002C14.9803 24.13 15.6323 25.4502 15.2955 26.5635C15.4629 26.597 15.6323 26.6148 15.7958 26.664C16.0731 26.7413 16.3295 26.88 16.5459 27.0699C16.7622 27.2598 16.9331 27.4961 17.0457 27.7611C17.1583 28.0261 17.2097 28.3131 17.1963 28.6008C17.1828 28.8884 17.1047 29.1693 16.9678 29.4227C15.9633 31.3182 14.9527 33.2118 13.9048 35.0837C13.2843 36.183 12.2594 36.9966 11.0483 37.3513C9.83722 37.7061 8.53549 37.574 7.42026 36.9832C6.16617 36.3264 4.91864 35.6519 3.67767 34.9596C1.66257 33.8424 0.772217 31.5448 1.3533 29.3143C1.91864 27.1468 2.2673 25.5448 2.47217 23.2965C2.51053 22.8668 2.52435 22.4352 2.51352 22.0039C2.49866 21.4989 2.6803 21.0078 3.02014 20.634C3.35999 20.2602 3.83157 20.0329 4.33557 20C5.39926 19.935 6.30536 21.1113 6.38614 22.1872C6.42157 22.6286 6.63431 22.0965 6.6619 22.6167ZM8.45441 21.5074L7.23117 23.7675C6.7059 24.7488 6.17603 25.7294 5.64154 26.7094C5.60968 26.7711 5.56586 26.8259 5.51263 26.8705C5.45941 26.9152 5.39786 26.9488 5.33151 26.9694C5.2652 26.99 5.1954 26.9973 5.12628 26.9907C5.05713 26.9841 4.98999 26.9638 4.92874 26.931C4.86749 26.8982 4.81339 26.8536 4.76953 26.7997C4.72571 26.7458 4.69302 26.6837 4.67337 26.6171C4.65375 26.5504 4.64755 26.4805 4.65515 26.4115C4.66278 26.3424 4.68402 26.2755 4.71771 26.2148C4.80045 26.0532 4.89499 25.8975 4.97379 25.734C5.1319 25.4677 5.25882 25.184 5.35199 24.8887C5.60413 23.7064 5.64352 23.2887 5.53519 22.0828C5.48987 21.5685 4.90485 21.0187 4.4183 21.0443C4.18137 21.0596 3.96002 21.1676 3.80219 21.345C3.64438 21.5224 3.56284 21.7549 3.57523 21.9921C3.57523 22.5281 3.5575 23.068 3.50235 23.602C3.26993 25.8699 2.91141 27.4818 2.35791 29.6867C2.13431 30.5246 2.19925 31.4134 2.5423 32.2098C2.88538 33.0063 3.48654 33.6639 4.2489 34.0768C5.44128 34.7245 6.63498 35.3701 7.82999 36.0138C8.26779 36.2591 8.74982 36.4153 9.24829 36.4733C9.74673 36.5313 10.2517 36.4899 10.7341 36.3516C11.2165 36.2133 11.6667 35.9807 12.0588 35.6674C12.4509 35.3541 12.777 34.9662 13.0184 34.5261C14.0388 32.6896 15.0237 30.8335 16.0184 28.9832C16.082 28.8809 16.124 28.7665 16.1416 28.6472C16.1592 28.528 16.1522 28.4064 16.121 28.2899C16.0898 28.1735 16.0349 28.0647 15.96 27.9704C15.885 27.876 15.7915 27.798 15.6852 27.7412C15.5788 27.6844 15.462 27.6501 15.3419 27.6404C15.2217 27.6306 15.1009 27.6456 14.9868 27.6845C14.8727 27.7233 14.7679 27.7852 14.6786 27.8662C14.5894 27.9473 14.5178 28.0458 14.4682 28.1557C14.2712 28.5222 14.0742 28.8906 13.8772 29.2571C13.831 29.3583 13.7543 29.4425 13.6579 29.498C13.5615 29.5534 13.4502 29.5774 13.3395 29.5665C13.2501 29.559 13.1641 29.5285 13.0899 29.478C13.0157 29.4274 12.9559 29.3585 12.9163 29.278C12.8766 29.1974 12.8585 29.108 12.8636 29.0184C12.8687 28.9287 12.8969 28.842 12.9455 28.7665C13.3533 27.996 13.7768 27.2335 14.1826 26.463C14.2614 26.3169 14.3116 26.1571 14.3303 25.9921C14.3423 25.7933 14.2851 25.5965 14.1684 25.4352C14.0516 25.2739 13.8826 25.1581 13.6901 25.1074C13.4985 25.053 13.2941 25.066 13.1109 25.1442C12.9278 25.2224 12.7769 25.361 12.6835 25.5369C12.39 26.067 12.1103 26.6049 11.8149 27.135C11.7823 27.1954 11.7381 27.2488 11.6849 27.2921C11.6317 27.3355 11.5704 27.3679 11.5046 27.3876C11.4389 27.4073 11.3699 27.4138 11.3016 27.4068C11.2334 27.3998 11.1671 27.3794 11.1067 27.3468C11.0463 27.3142 10.993 27.27 10.9496 27.2168C10.9063 27.1635 10.8738 27.1023 10.8542 27.0365C10.8345 26.9707 10.828 26.9017 10.835 26.8334C10.842 26.7651 10.8624 26.6988 10.895 26.6384C10.9954 26.4414 11.1038 26.2443 11.2082 26.0473C11.612 25.2985 12.0217 24.5557 12.4156 23.8029C12.4727 23.7007 12.5088 23.588 12.5218 23.4716C12.5349 23.3552 12.5245 23.2374 12.4915 23.125C12.4584 23.0126 12.4032 22.908 12.3292 22.8172C12.2552 22.7264 12.1639 22.6513 12.0605 22.5962C11.9572 22.5412 11.8438 22.5073 11.7272 22.4966C11.6106 22.4859 11.4931 22.4986 11.3814 22.5339C11.2697 22.5692 11.1663 22.6264 11.077 22.7022C10.9877 22.778 10.9145 22.8709 10.8615 22.9754C10.7906 23.0995 10.7236 23.2276 10.6645 23.3537C10.2509 24.1222 9.83588 24.8893 9.41962 25.6552C9.39038 25.7287 9.34482 25.7947 9.28638 25.848C9.22791 25.9014 9.15811 25.9408 9.08218 25.9632C9.00629 25.9856 8.9263 25.9904 8.84824 25.9773C8.7702 25.9643 8.69614 25.9336 8.63168 25.8877C8.38153 25.7222 8.33426 25.4463 8.5076 25.1251C9.52927 23.2296 10.5529 21.3346 11.5785 19.4404C11.9941 18.6739 12.4117 17.9074 12.8214 17.1389C12.8743 17.0354 12.9063 16.9225 12.9156 16.8066C12.9249 16.6907 12.9113 16.5742 12.8755 16.4636C12.8397 16.353 12.7825 16.2505 12.7072 16.162C12.6318 16.0735 12.5398 16.0007 12.4363 15.9478C12.3329 15.8949 12.22 15.8629 12.1042 15.8536C11.9883 15.8443 11.8718 15.8579 11.7612 15.8937C11.6506 15.9295 11.5482 15.9867 11.4597 16.0621C11.3712 16.1374 11.2985 16.2295 11.2456 16.333C10.3145 18.0591 9.38416 19.7839 8.45441 21.5074Z" fill="#FFFFFF" fill-opacity="1.000000" fill-rule="nonzero"/>
	<path id="Vector" d="M17.3991 19.6453C16.7509 20.8653 15.7097 21.8304 14.4444 22.3842C14.3664 22.4333 14.2742 22.455 14.1825 22.4457C14.0908 22.4364 14.0048 22.3968 13.9382 22.333C13.8364 22.2089 13.7764 22.0558 13.7668 21.8956C13.7668 21.6985 13.9382 21.5961 14.1115 21.5172C15.2399 21.018 16.1515 20.1299 16.6801 19.0148C17.7911 16.7586 16.9658 13.8148 14.8423 12.469C12.4983 10.9833 9.5239 11.4837 7.87912 13.6966C6.63226 15.3773 6.51602 17.2118 7.39062 19.1113C7.42609 19.1862 7.46942 19.2571 7.50879 19.332C7.66245 19.6158 7.60925 19.8916 7.37485 20.0256C7.14044 20.1596 6.86469 20.0709 6.69727 19.7754C6.34286 19.1457 6.10403 18.4577 5.99207 17.7438C5.26523 13.1724 9.75238 9.46799 14.0997 11.064C14.8877 11.3545 15.6073 11.8045 16.2136 12.3858C16.8199 12.9671 17.2997 13.6672 17.6233 14.4424C17.9468 15.2177 18.107 16.0513 18.0938 16.8913C18.0807 17.7312 17.8945 18.5594 17.5468 19.3241C17.4897 19.4542 17.4326 19.5764 17.3991 19.6453Z" fill="#FFFFFF" fill-opacity="1.000000" fill-rule="nonzero"/>
	<path id="Vector" d="M15.5572 18.8177C15.256 19.3663 14.8328 19.8382 14.3202 20.197C14.2663 20.245 14.2028 20.281 14.1339 20.3026C14.065 20.3243 13.9923 20.331 13.9206 20.3224C13.8489 20.3139 13.7799 20.2902 13.718 20.2529C13.6562 20.2157 13.603 20.1657 13.5618 20.1064C13.3964 19.8699 13.4673 19.5842 13.7411 19.3793C15.3741 18.1596 15.4981 15.8562 13.9775 14.5517C13.5586 14.1646 13.0349 13.9095 12.4719 13.8184C11.9089 13.7273 11.3316 13.8041 10.812 14.0394C9.6597 14.5103 9.03922 15.4187 8.91315 16.6522C8.86981 17.0956 8.69843 17.3103 8.3754 17.2867C8.05234 17.263 7.86719 17.0246 7.91446 16.5695C8.09369 14.869 8.96436 13.6512 10.5697 13.0601C12.1751 12.469 13.6288 12.7921 14.8264 13.9823C16.0241 15.1724 16.3274 16.6404 15.7956 18.2562C15.7325 18.4453 15.638 18.6207 15.5572 18.8177Z" fill="#FFFFFF" fill-opacity="1.000000" fill-rule="nonzero"/>
	<path id="Vector" d="M8.45447 21.5074C9.38419 19.7852 10.3146 18.0637 11.2457 16.3429C11.2986 16.2394 11.3713 16.1473 11.4598 16.0719C11.5482 15.9965 11.6507 15.9393 11.7613 15.9035C11.8718 15.8678 11.9884 15.8541 12.1042 15.8634C12.22 15.8727 12.3329 15.9047 12.4364 15.9576C12.5399 16.0106 12.6319 16.0833 12.7072 16.1718C12.7826 16.2603 12.8398 16.3628 12.8755 16.4734C12.9113 16.584 12.9249 16.7006 12.9156 16.8165C12.9064 16.9324 12.8744 17.0453 12.8215 17.1488C12.4118 17.9172 11.9942 18.6838 11.5786 19.4503C10.5543 21.3458 9.53061 23.2407 8.50763 25.135C8.33429 25.4562 8.38159 25.7261 8.63174 25.8975C8.6962 25.9435 8.77026 25.9741 8.8483 25.9872C8.92636 26.0003 9.00635 25.9954 9.08224 25.973C9.15814 25.9506 9.22797 25.9113 9.28641 25.8579C9.34488 25.8045 9.39044 25.7386 9.41965 25.665C9.83725 24.9005 10.2522 24.1333 10.6646 23.3635C10.7335 23.2374 10.8005 23.1094 10.8615 22.9852C10.9145 22.8808 10.9878 22.7879 11.077 22.7121C11.1663 22.6363 11.2698 22.5791 11.3815 22.5438C11.4931 22.5084 11.6107 22.4958 11.7273 22.5065C11.8439 22.5172 11.9572 22.551 12.0606 22.6061C12.1639 22.6611 12.2553 22.7362 12.3293 22.827C12.4033 22.9178 12.4584 23.0225 12.4915 23.1348C12.5246 23.2472 12.5349 23.365 12.5219 23.4815C12.5089 23.5979 12.4728 23.7105 12.4157 23.8128C12.0218 24.5655 11.612 25.3084 11.2082 26.0571C11.1038 26.2542 10.9955 26.4512 10.895 26.6483C10.8624 26.7087 10.8421 26.775 10.8351 26.8433C10.8281 26.9115 10.8346 26.9806 10.8542 27.0463C10.8739 27.1121 10.9063 27.1734 10.9496 27.2266C10.993 27.2799 11.0464 27.3241 11.1068 27.3567C11.1672 27.3893 11.2334 27.4096 11.3017 27.4166C11.37 27.4236 11.4389 27.4171 11.5047 27.3974C11.5705 27.3778 11.6317 27.3453 11.6849 27.302C11.7382 27.2587 11.7823 27.2052 11.8149 27.1448C12.1104 26.6148 12.3901 26.0769 12.6836 25.5468C12.777 25.3708 12.9278 25.2322 13.111 25.154C13.2942 25.0759 13.4986 25.0629 13.6902 25.1172C13.8827 25.1679 14.0517 25.2838 14.1684 25.4451C14.2851 25.6064 14.3423 25.8032 14.3304 26.002C14.3116 26.1669 14.2614 26.3268 14.1826 26.4729C13.7768 27.2433 13.3533 28.0059 12.9456 28.7763C12.897 28.8518 12.8688 28.9386 12.8636 29.0282C12.8585 29.1179 12.8766 29.2073 12.9163 29.2878C12.956 29.3684 13.0158 29.4373 13.09 29.4878C13.1641 29.5384 13.2501 29.5689 13.3395 29.5763C13.4502 29.5872 13.5615 29.5633 13.658 29.5078C13.7544 29.4524 13.8311 29.3682 13.8773 29.267C14.0743 28.9005 14.2712 28.532 14.4682 28.1655C14.5179 28.0557 14.5895 27.9571 14.6787 27.8761C14.7679 27.795 14.8728 27.7332 14.9869 27.6943C15.101 27.6555 15.2218 27.6405 15.3419 27.6502C15.462 27.66 15.5789 27.6943 15.6852 27.7511C15.7915 27.8078 15.8851 27.8858 15.96 27.9802C16.035 28.0746 16.0898 28.1834 16.121 28.2998C16.1523 28.4162 16.1593 28.5378 16.1417 28.6571C16.124 28.7764 16.0821 28.8907 16.0185 28.9931C15.0336 30.8434 14.0487 32.6995 13.0185 34.536C12.7771 34.9761 12.4509 35.364 12.0589 35.6773C11.6668 35.9906 11.2166 36.2231 10.7342 36.3615C10.2518 36.4998 9.7468 36.5411 9.24832 36.4831C8.74988 36.4252 8.26782 36.269 7.83005 36.0236C6.63504 35.38 5.44135 34.7343 4.24896 34.0867C3.48657 33.6738 2.88541 33.0161 2.54236 32.2197C2.19931 31.4232 2.13434 30.5344 2.35797 29.6966C2.90359 27.4916 3.26996 25.8798 3.50241 23.6118C3.55756 23.0778 3.56937 22.5379 3.57529 22.002C3.56287 21.7648 3.64441 21.5323 3.80225 21.3549C3.96005 21.1775 4.18143 21.0694 4.41837 21.0542C4.53421 21.0481 4.65009 21.0651 4.75931 21.1043C4.8685 21.1434 4.96881 21.2039 5.05441 21.2822C5.14005 21.3605 5.20923 21.4551 5.25793 21.5604C5.30667 21.6657 5.33398 21.7796 5.33826 21.8956C5.44659 23.1015 5.60419 23.7143 5.35205 24.8985C5.25888 25.1939 5.13196 25.4776 4.97385 25.7438C4.89505 25.9074 4.80051 26.0631 4.71777 26.2246C4.68408 26.2854 4.66284 26.3523 4.65521 26.4213C4.64761 26.4904 4.65381 26.5603 4.67343 26.6269C4.69308 26.6936 4.72577 26.7557 4.76959 26.8096C4.81345 26.8635 4.86755 26.9081 4.9288 26.9409C4.99002 26.9737 5.05719 26.9939 5.12631 27.0005C5.19547 27.0071 5.26523 26.9999 5.33157 26.9793C5.39789 26.9586 5.45947 26.925 5.5127 26.8804C5.56592 26.8357 5.60974 26.7809 5.6416 26.7192C6.17343 25.7406 6.70331 24.7599 7.23123 23.7773L8.45447 21.5074Z" fill="#3792E7" fill-opacity="1.000000" fill-rule="nonzero"/>
	<path id="Vector" d="M22.2589 29.0463L17.3009 24.069C17.1547 23.9223 17.0389 23.7482 16.96 23.5567C16.8811 23.3652 16.8407 23.16 16.841 22.9529C16.8414 22.7458 16.8825 22.5407 16.9621 22.3495C17.0417 22.1583 17.1581 21.9846 17.3048 21.8384C17.4515 21.6922 17.6255 21.5763 17.8169 21.4974C18.0084 21.4185 18.2135 21.3781 18.4205 21.3784C18.6276 21.3788 18.8326 21.42 19.0237 21.4996C19.2148 21.5792 19.3885 21.6956 19.5346 21.8424L22.2923 24.601L29.941 17.1133C30.2398 16.8209 30.6425 16.6592 31.0605 16.6639C31.4785 16.6685 31.8775 16.839 32.1698 17.1379C32.4621 17.4369 32.6237 17.8397 32.6191 18.2578C32.6145 18.6759 32.444 19.0751 32.1452 19.3675L22.2589 29.0463Z" fill="#FFFFFF" fill-opacity="1.000000" fill-rule="nonzero"/>
	<path id="Vector" d="M52.7076 18.9793L48.768 18.9793L48.768 6.56552L52.7076 6.56552C53.8647 6.55295 55.0006 6.87673 55.9774 7.49754C56.8637 8.05017 57.5993 8.8138 58.1186 9.7202C58.6426 10.6528 58.9179 11.7046 58.9179 12.7744C58.9179 13.8442 58.6426 14.896 58.1186 15.8286C57.5994 16.734 56.8637 17.4964 55.9774 18.0473C55.001 18.6688 53.8648 18.9927 52.7076 18.9793ZM52.7076 17.3044C53.509 17.3128 54.2973 17.1008 54.9866 16.6916C55.6622 16.291 56.2258 15.7265 56.6255 15.0502C57.0254 14.3581 57.236 13.5728 57.236 12.7734C57.236 11.974 57.0254 11.1887 56.6255 10.4966C56.2272 9.81477 55.6588 9.24819 54.9757 8.85233C54.2927 8.45648 53.5186 8.24493 52.7292 8.23842L50.4462 8.23842L50.4462 17.3025L52.7076 17.3044Z" fill="#3792E7" fill-opacity="1.000000" fill-rule="nonzero"/>
	<path id="Vector" d="M67.1541 18.9793C66.0546 18.9912 64.9727 18.7016 64.0261 18.1419C63.0975 17.5956 62.3239 16.821 61.7786 15.8916C61.2302 14.9415 60.9415 13.8636 60.9415 12.7665C60.9415 11.6693 61.2302 10.5915 61.7786 9.64138C62.3234 8.71114 63.0971 7.93581 64.0261 7.38916C64.9759 6.84059 66.0534 6.55178 67.1502 6.55178C68.2469 6.55178 69.3244 6.84059 70.2743 7.38916C71.2028 7.93472 71.9764 8.70864 72.5218 9.63743C73.0702 10.5876 73.3589 11.6654 73.3589 12.7626C73.3589 13.8597 73.0702 14.9375 72.5218 15.8877C71.9765 16.817 71.2029 17.5916 70.2743 18.1379C69.3305 18.698 68.2514 18.989 67.1541 18.9793ZM67.1541 17.3044C67.9563 17.3134 68.7454 17.1014 69.4351 16.6916C70.1107 16.291 70.6743 15.7265 71.074 15.0502C71.4752 14.3571 71.6865 13.5704 71.6865 12.7695C71.6865 11.9685 71.4752 11.1818 71.074 10.4887C70.6756 9.81039 70.1118 9.24429 69.4351 8.84335C68.7419 8.44185 67.9551 8.23043 67.1541 8.23043C66.3531 8.23043 65.5663 8.44185 64.8731 8.84335C64.1952 9.24263 63.631 9.8091 63.2342 10.4887C62.8354 11.1826 62.6254 11.969 62.6254 12.7695C62.6254 13.5699 62.8354 14.3563 63.2342 15.0502C63.6322 15.7278 64.1962 16.2927 64.8731 16.6916C65.5633 17.1002 66.3521 17.3121 67.1541 17.3044Z" fill="#3792E7" fill-opacity="1.000000" fill-rule="nonzero"/>
	<path id="Vector" d="M81.0923 18.9793C79.9927 18.9912 78.9109 18.7016 77.9643 18.1419C77.0355 17.5951 76.2613 16.8207 75.7148 15.8916C75.1664 14.9415 74.8777 13.8636 74.8777 12.7665C74.8777 11.6693 75.1664 10.5915 75.7148 9.64137C76.2609 8.71148 77.0352 7.93631 77.9643 7.38916C78.7942 6.90961 79.7233 6.62748 80.6797 6.56461C81.6361 6.50174 82.5941 6.65981 83.4797 7.02659C84.3249 7.41332 85.0905 7.95464 85.7371 8.62266L84.5552 9.81477C84.0629 9.29593 83.4775 8.87418 82.8297 8.57142C82.1835 8.30472 81.4847 8.19019 80.7873 8.23665C80.0898 8.28312 79.4124 8.48934 78.8073 8.8394C78.1294 9.23868 77.5652 9.80516 77.1685 10.4847C76.7696 11.1786 76.5597 11.9651 76.5597 12.7655C76.5597 13.566 76.7696 14.3524 77.1685 15.0463C77.5664 15.7239 78.1305 16.2888 78.8073 16.6877C79.4116 17.0381 80.0885 17.2444 80.7854 17.2905C81.4824 17.3366 82.1805 17.2214 82.8257 16.9537C83.4676 16.6533 84.049 16.2379 84.5414 15.7281L85.7233 16.9103C85.0789 17.5787 84.3145 18.1195 83.4698 18.5044C82.7173 18.8212 81.9087 18.9827 81.0923 18.9793Z" fill="#3792E7" fill-opacity="1.000000" fill-rule="nonzero"/>
	<path id="Vector" d="M93.0372 18.9793L91.3531 18.9793L91.3531 8.23055L87.315 8.23055L87.315 6.55567L97.0832 6.55567L97.0832 8.23055L93.0372 8.23055L93.0372 18.9793Z" fill="#3792E7" fill-opacity="1.000000" fill-rule="nonzero"/>
	<path id="Vector" d="M104.816 18.9793C103.717 18.9912 102.635 18.7016 101.688 18.1419C100.76 17.5951 99.9854 16.8207 99.4388 15.8916C98.8904 14.9415 98.6017 13.8636 98.6017 12.7665C98.6017 11.6693 98.8904 10.5915 99.4388 9.64138C99.985 8.71149 100.759 7.93631 101.688 7.38916C102.638 6.84059 103.716 6.55178 104.812 6.55178C105.909 6.55178 106.987 6.84059 107.936 7.38916C108.865 7.93528 109.638 8.70907 110.184 9.63743C110.732 10.5876 111.021 11.6654 111.021 12.7626C111.021 13.8597 110.732 14.9375 110.184 15.8877C109.638 16.8166 108.865 17.5911 107.936 18.1379C106.993 18.698 105.914 18.989 104.816 18.9793ZM104.816 17.3044C105.618 17.3128 106.406 17.1008 107.095 16.6916C107.771 16.291 108.335 15.7265 108.734 15.0502C109.135 14.3571 109.347 13.5704 109.347 12.7695C109.347 11.9685 109.135 11.1818 108.734 10.4887C108.336 9.81039 107.772 9.24429 107.095 8.84335C106.402 8.44185 105.615 8.23043 104.814 8.23043C104.013 8.23043 103.227 8.44185 102.533 8.84335C101.855 9.24263 101.291 9.8091 100.894 10.4887C100.496 11.1826 100.286 11.969 100.286 12.7695C100.286 13.5699 100.496 14.3563 100.894 15.0502C101.292 15.7278 101.856 16.2927 102.533 16.6916C103.224 17.1008 104.014 17.3128 104.816 17.3044Z" fill="#3792E7" fill-opacity="1.000000" fill-rule="nonzero"/>
	<path id="Vector" d="M123.448 18.9793L121.317 18.9793L117.831 14.5419L114.569 14.5419L114.569 18.9793L112.885 18.9793L112.885 6.55567L119.03 6.55567C119.988 6.54304 120.917 6.88797 121.634 7.52315C122.062 7.8936 122.407 8.3493 122.649 8.86108C122.895 9.39022 123.023 9.96694 123.023 10.5507C123.023 11.1345 122.895 11.7112 122.649 12.2404C122.406 12.7504 122.061 13.2046 121.634 13.5744C121.27 13.8925 120.848 14.1386 120.391 14.2995L119.917 14.4631L123.448 18.9793ZM119.03 12.8571C119.643 12.8571 120.23 12.6138 120.663 12.1808C121.096 11.7477 121.339 11.1603 121.339 10.5478C121.339 9.93531 121.096 9.34791 120.663 8.91482C120.23 8.48174 119.643 8.23842 119.03 8.23842L114.569 8.23842L114.569 12.8571L119.03 12.8571Z" fill="#3792E7" fill-opacity="1.000000" fill-rule="nonzero"/>
	<path id="Vector" d="M131.665 18.9793C130.563 18.9926 129.478 18.703 128.529 18.1419C127.6 17.5956 126.827 16.821 126.281 15.8916C125.733 14.9415 125.444 13.8636 125.444 12.7665C125.444 11.6693 125.733 10.5915 126.281 9.64138C126.826 8.71114 127.6 7.93581 128.529 7.38916C129.479 6.84059 130.556 6.55178 131.653 6.55178C132.75 6.55178 133.827 6.84059 134.777 7.38916C135.705 7.93528 136.479 8.70906 137.025 9.63743C137.573 10.5876 137.862 11.6654 137.862 12.7626C137.862 13.8597 137.573 14.9375 137.025 15.8877C136.479 16.8166 135.705 17.5911 134.777 18.1379C133.836 18.6966 132.76 18.9875 131.665 18.9793ZM131.665 17.3044C132.466 17.3131 133.255 17.1011 133.944 16.6916C134.619 16.291 135.183 15.7265 135.583 15.0502C135.984 14.3571 136.195 13.5704 136.195 12.7695C136.195 11.9685 135.984 11.1818 135.583 10.4887C135.184 9.81039 134.621 9.24429 133.944 8.84335C133.251 8.44185 132.464 8.23043 131.663 8.23043C130.862 8.23043 130.075 8.44185 129.382 8.84335C128.704 9.24263 128.14 9.8091 127.743 10.4887C127.344 11.1826 127.134 11.969 127.134 12.7695C127.134 13.5699 127.344 14.3563 127.743 15.0502C128.141 15.7278 128.705 16.2927 129.382 16.6916C130.073 17.1005 130.862 17.3125 131.665 17.3044Z" fill="#3792E7" fill-opacity="1.000000" fill-rule="nonzero"/>
	<path id="Vector" d="M146.397 18.9793L144.904 18.9793L139.217 6.55567L141.088 6.55567L145.646 16.6384L150.21 6.55567L152.076 6.55567L146.397 18.9793Z" fill="#3792E7" fill-opacity="1.000000" fill-rule="nonzero"/>
	<path id="Vector" d="M154.258 18.9793C154.125 18.9818 153.993 18.9571 153.87 18.9066C153.747 18.8561 153.636 18.7809 153.543 18.6857C153.378 18.5211 153.274 18.3043 153.251 18.0721C153.227 17.84 153.285 17.6068 153.414 17.4124C153.543 17.218 153.736 17.0743 153.959 17.0059C154.182 16.9375 154.422 16.9485 154.637 17.0371C154.853 17.1258 155.032 17.2865 155.142 17.4919C155.253 17.6973 155.289 17.9348 155.244 18.1638C155.2 18.3929 155.077 18.5993 154.897 18.748C154.717 18.8967 154.491 18.9784 154.258 18.9793Z" fill="#3792E7" fill-opacity="1.000000" fill-rule="nonzero"/>
	<path id="Vector" d="M164.253 18.9793C163.153 18.9915 162.071 18.7019 161.125 18.1419C160.196 17.5951 159.422 16.8207 158.875 15.8916C158.327 14.9415 158.038 13.8636 158.038 12.7665C158.038 11.6693 158.327 10.5915 158.875 9.64138C159.421 8.71149 160.195 7.93631 161.125 7.38916C162.074 6.84059 163.152 6.55178 164.249 6.55178C165.346 6.55178 166.423 6.84059 167.373 7.38916C168.301 7.93528 169.074 8.70906 169.62 9.63743C170.169 10.5876 170.457 11.6654 170.457 12.7626C170.457 13.8597 170.169 14.9375 169.62 15.8877C169.074 16.8166 168.301 17.5911 167.373 18.1379C166.429 18.698 165.35 18.989 164.253 18.9793ZM164.253 17.3044C165.054 17.313 165.841 17.101 166.53 16.6916C167.206 16.2911 167.77 15.7266 168.171 15.0502C168.572 14.3571 168.783 13.5704 168.783 12.7695C168.783 11.9685 168.572 11.1818 168.171 10.4887C167.771 9.8103 167.207 9.24424 166.53 8.84335C165.837 8.44202 165.05 8.23069 164.25 8.23069C163.449 8.23069 162.663 8.44202 161.97 8.84335C161.291 9.24258 160.726 9.80902 160.329 10.4887C159.931 11.183 159.722 11.9693 159.722 12.7695C159.722 13.5696 159.931 14.3559 160.329 15.0502C160.728 15.7279 161.292 16.2928 161.97 16.6916C162.66 17.1008 163.45 17.3128 164.253 17.3044Z" fill="#3792E7" fill-opacity="1.000000" fill-rule="nonzero"/>
	<path id="Vector" d="M182.895 18.9793L180.764 18.9793L177.277 14.5419L174.015 14.5419L174.015 18.9793L172.331 18.9793L172.331 6.55567L178.477 6.55567C179.436 6.54255 180.365 6.8875 181.083 7.52315C181.51 7.8936 181.856 8.3493 182.097 8.86108C182.344 9.39022 182.472 9.96694 182.472 10.5507C182.472 11.1345 182.344 11.7112 182.097 12.2404C181.855 12.7504 181.509 13.2046 181.083 13.5744C180.718 13.8921 180.296 14.1381 179.84 14.2995L179.365 14.4631L182.895 18.9793ZM178.477 12.8571C179.089 12.8571 179.676 12.6138 180.109 12.1808C180.542 11.7477 180.785 11.1603 180.785 10.5478C180.785 9.93531 180.542 9.34791 180.109 8.91482C179.676 8.48174 179.089 8.23842 178.477 8.23842L174.015 8.23842L174.015 12.8571L178.477 12.8571Z" fill="#3792E7" fill-opacity="1.000000" fill-rule="nonzero"/>
	<path id="Vector" d="M191.351 18.9793C190.254 18.9902 189.175 18.7006 188.231 18.1419C187.303 17.5967 186.53 16.8244 185.983 15.8975C185.435 14.9481 185.146 13.8709 185.146 12.7744C185.146 11.6779 185.435 10.6007 185.983 9.65123C186.529 8.72187 187.302 7.9473 188.231 7.40099C189.061 6.92087 189.99 6.63842 190.946 6.57554C191.903 6.51266 192.861 6.67105 193.746 7.03842C194.59 7.42632 195.354 7.96827 196 8.63646L194.818 9.81873C194.326 9.30526 193.744 8.88707 193.1 8.58522C192.454 8.31749 191.756 8.20221 191.058 8.24835C190.36 8.29448 189.683 8.50077 189.078 8.85123C188.402 9.25182 187.839 9.81635 187.439 10.4926C187.038 11.185 186.827 11.9711 186.827 12.7714C186.827 13.5717 187.038 14.3579 187.439 15.0502C187.839 15.7265 188.402 16.291 189.078 16.6916C189.767 17.1011 190.556 17.3131 191.357 17.3044C191.895 17.3058 192.429 17.209 192.933 17.0187C193.369 16.8638 193.776 16.6359 194.136 16.3448L194.136 12.798L190.908 12.798L190.908 11.133L195.811 11.133L195.811 17.0975C195.49 17.4196 195.141 17.7118 194.767 17.9704C194.269 18.2932 193.728 18.5458 193.161 18.7212C192.574 18.8974 191.964 18.9844 191.351 18.9793Z" fill="#3792E7" fill-opacity="1.000000" fill-rule="nonzero"/>
	<path id="Vector" d="M51.851 32.532L48.851 32.532L48.851 26.4709L51.5102 26.4709C51.7208 26.4693 51.9292 26.5137 52.1208 26.601C52.3078 26.6865 52.4759 26.8084 52.6152 26.9596C52.8715 27.2311 53.0127 27.5912 53.0092 27.9645C53.0107 28.1743 52.9671 28.382 52.8812 28.5734C52.7945 28.7704 52.7531 28.8552 52.7531 28.8571C52.8063 28.8969 52.8615 28.9337 52.9186 28.9675C52.9919 29.0106 53.0617 29.0593 53.1274 29.1133C53.3349 29.2927 53.5026 29.5135 53.6198 29.7616C53.7403 30.02 53.8015 30.3021 53.7991 30.5872C53.8017 30.8711 53.7405 31.1519 53.6198 31.4089C53.5017 31.658 53.3326 31.8795 53.1234 32.0591C52.7735 32.3707 52.3194 32.5394 51.851 32.532ZM51.5102 28.6384C51.5989 28.6402 51.6871 28.6236 51.7691 28.5897C51.8511 28.5558 51.9253 28.5053 51.9869 28.4414C52.1119 28.3146 52.1819 28.1436 52.1819 27.9655C52.1819 27.7874 52.1119 27.6165 51.9869 27.4897C51.9253 27.4257 51.8511 27.3752 51.7691 27.3413C51.6871 27.3074 51.5989 27.2908 51.5102 27.2926L49.6704 27.2926L49.6704 28.6384L51.5102 28.6384ZM51.851 31.7143C52.1498 31.7143 52.4364 31.5955 52.6477 31.3842C52.859 31.1728 52.9777 30.8861 52.9777 30.5872C52.9777 30.2883 52.859 30.0016 52.6477 29.7902C52.4364 29.5788 52.1498 29.4601 51.851 29.4601L49.6704 29.4601L49.6704 31.7143L51.851 31.7143Z" fill="#3792E7" fill-opacity="1.000000" fill-rule="nonzero"/>
	<path id="Vector" d="M58.0103 32.532C57.4741 32.5381 56.9466 32.3963 56.4857 32.1222C56.033 31.8566 55.6559 31.4794 55.3904 31.0266C55.1234 30.5634 54.9828 30.0381 54.9828 29.5034C54.9828 28.9688 55.1234 28.4435 55.3904 27.9803C55.6559 27.5275 56.033 27.1503 56.4857 26.8847C56.9466 26.6106 57.4741 26.4688 58.0103 26.4749C58.4088 26.4706 58.8042 26.547 59.1724 26.6995C59.585 26.8909 59.9579 27.1583 60.2716 27.4877L59.6964 28.0788C59.4566 27.8264 59.1721 27.6206 58.8573 27.4719C58.5409 27.3412 58.1988 27.2849 57.8572 27.3075C57.5157 27.33 57.1839 27.4308 56.8875 27.602C56.5609 27.7979 56.2897 28.0739 56.0996 28.4039C55.9048 28.7423 55.8022 29.1258 55.8022 29.5163C55.8022 29.9067 55.9048 30.2903 56.0996 30.6286C56.2904 30.9576 56.5615 31.2328 56.8875 31.4286C57.1838 31.6001 57.5156 31.701 57.8572 31.7235C58.1988 31.7461 58.541 31.6897 58.8573 31.5586C59.1693 31.413 59.4528 31.2128 59.6944 30.9675L60.2696 31.5429C59.9559 31.8683 59.5837 32.1317 59.1724 32.3192C58.8034 32.468 58.4081 32.5404 58.0103 32.532Z" fill="#3792E7" fill-opacity="1.000000" fill-rule="nonzero"/>
	<path id="Vector" d="M65.4582 32.532L61.5875 32.532L61.5875 26.4709L65.4582 26.4709L65.4582 27.2906L62.4089 27.2906L62.4089 28.6365L65.4582 28.6365L65.4582 29.4581L62.4089 29.4581L62.4089 31.7123L65.4582 31.7123L65.4582 32.532Z" fill="#3792E7" fill-opacity="1.000000" fill-rule="nonzero"/>
	<path id="Vector" d="M75.2678 33.4443L74.4483 33.4443L74.4483 32.532L70.0262 32.532L70.0262 33.4443L69.2047 33.4443L69.2047 31.7143L69.7957 31.7143C70.0227 31.521 70.2055 31.2811 70.3315 31.0108C70.474 30.7133 70.5468 30.3871 70.5442 30.0571L70.5442 26.4709L74.4188 26.4709L74.4188 31.7143L75.256 31.7143L75.2678 33.4443ZM73.6112 31.7143L73.6112 27.2906L71.3774 27.2906L71.3774 30.0493C71.3774 30.8059 71.2257 31.3596 70.9224 31.7064L73.6112 31.7143Z" fill="#3792E7" fill-opacity="1.000000" fill-rule="nonzero"/>
	<path id="Vector" d="M79.3076 32.532C78.7708 32.5383 78.2426 32.3965 77.781 32.1222C77.3288 31.856 76.9518 31.479 76.6858 31.0266C76.4187 30.5634 76.2781 30.0381 76.2781 29.5034C76.2781 28.9687 76.4187 28.4435 76.6858 27.9803C76.9518 27.5279 77.3288 27.1509 77.781 26.8847C78.2439 26.6162 78.7695 26.4748 79.3046 26.4748C79.8397 26.4748 80.3654 26.6162 80.8283 26.8847C81.2805 27.1509 81.6574 27.5279 81.9235 27.9803C82.1906 28.4435 82.3311 28.9687 82.3311 29.5034C82.3311 30.0381 82.1906 30.5634 81.9235 31.0266C81.6574 31.479 81.2805 31.856 80.8283 32.1222C80.3686 32.3958 79.8425 32.5375 79.3076 32.532ZM79.3076 31.7143C79.6976 31.719 80.0813 31.616 80.4166 31.4167C80.7463 31.2218 81.0214 30.9466 81.2163 30.6167C81.4125 30.2789 81.5158 29.8951 81.5158 29.5044C81.5158 29.1137 81.4125 28.73 81.2163 28.3921C81.0221 28.0612 80.7469 27.7852 80.4166 27.5901C80.0787 27.3953 79.6956 27.2927 79.3056 27.2927C78.9156 27.2927 78.5325 27.3953 78.1946 27.5901C77.8639 27.7847 77.5886 28.0608 77.3949 28.3921C77.2001 28.7304 77.0976 29.114 77.0976 29.5044C77.0976 29.8949 77.2001 30.2784 77.3949 30.6167C77.5892 30.9471 77.8644 31.2224 78.1946 31.4167C78.5314 31.616 78.9164 31.719 79.3076 31.7143Z" fill="#3792E7" fill-opacity="1.000000" fill-rule="nonzero"/>
	<path id="Vector" d="M88.9615 32.532C88.3604 32.5542 87.7647 32.4126 87.2379 32.1222C86.7853 31.8566 86.4082 31.4794 86.1427 31.0266C85.8701 30.565 85.7291 30.0375 85.735 29.5015L85.735 29.4207C85.5742 29.4406 85.4124 29.4504 85.2504 29.4502C85.0633 29.4502 84.882 29.464 84.7087 29.464L84.4684 29.464L84.4684 32.532L83.649 32.532L83.649 26.4709L84.4684 26.4709L84.4684 28.6384L85.1499 28.6384C85.5174 28.6423 85.8797 28.5513 86.2018 28.3744C86.5169 28.2029 86.7869 27.9591 86.9897 27.6631C87.2137 27.3062 87.3488 26.9007 87.3837 26.4808L88.1992 26.4808C88.1681 27.0304 88.0081 27.565 87.7323 28.0414C87.4825 28.4367 87.1457 28.7697 86.7474 29.0148C86.6529 29.0739 86.5899 29.1094 86.5623 29.1231L86.5623 29.5172C86.5579 29.9086 86.6608 30.2936 86.8597 30.6305C87.0528 30.9623 87.3283 31.2386 87.6595 31.4325C88.0615 31.6475 88.5139 31.7503 88.9694 31.7301L88.9615 32.532Z" fill="#3792E7" fill-opacity="1.000000" fill-rule="nonzero"/>
	<path id="Vector" d="M92.533 32.532L91.7116 32.532L91.7116 27.2906L89.7418 27.2906L89.7418 26.4729L94.5028 26.4729L94.5028 27.2906L92.533 27.2906L92.533 32.532Z" fill="#3792E7" fill-opacity="1.000000" fill-rule="nonzero"/>
	<path id="Vector" d="M98.6452 32.532C98.109 32.5384 97.5814 32.3965 97.1206 32.1222C96.6698 31.8583 96.2936 31.484 96.0273 31.0345C95.7603 30.5713 95.6197 30.046 95.6197 29.5113C95.6197 28.9766 95.7603 28.4513 96.0273 27.9882C96.2936 27.5353 96.6713 27.1581 97.1245 26.8926C97.5871 26.6241 98.1124 26.4826 98.6472 26.4826C99.182 26.4826 99.7073 26.6241 100.17 26.8926C100.622 27.1582 101 27.5354 101.265 27.9882C101.532 28.4513 101.673 28.9766 101.673 29.5113C101.673 30.046 101.532 30.5713 101.265 31.0345C101 31.4873 100.622 31.8645 100.17 32.13C99.7083 32.4019 99.1807 32.541 98.6452 32.532ZM98.6452 31.7143C99.0358 31.7187 99.42 31.6158 99.7562 31.4167C100.085 31.2212 100.359 30.9461 100.554 30.6167C100.75 30.2789 100.853 29.8951 100.853 29.5044C100.853 29.1137 100.75 28.73 100.554 28.3921C100.36 28.0618 100.085 27.7859 99.7562 27.5901C99.418 27.3953 99.0345 27.2927 98.6442 27.2927C98.2539 27.2927 97.8705 27.3953 97.5323 27.5901C97.202 27.7852 96.9267 28.0612 96.7325 28.3921C96.5389 28.7308 96.437 29.1142 96.437 29.5044C96.437 29.8946 96.5389 30.278 96.7325 30.6167C96.9274 30.9466 97.2025 31.2218 97.5323 31.4167C97.869 31.616 98.254 31.719 98.6452 31.7143Z" fill="#3792E7" fill-opacity="1.000000" fill-rule="nonzero"/>
	<path id="Vector" d="M103.806 32.532L102.987 32.532L102.987 26.4709L105.985 26.4709C106.326 26.4706 106.662 26.5605 106.958 26.7315C107.254 26.9024 107.499 27.1484 107.67 27.4446C107.84 27.7408 107.929 28.0767 107.928 28.4185C107.928 28.7603 107.837 29.0958 107.665 29.3911C107.493 29.6812 107.251 29.9236 106.962 30.0965C106.664 30.2741 106.323 30.3668 105.977 30.3645L103.806 30.3645L103.806 32.532ZM105.985 29.5468C106.283 29.5468 106.57 29.4281 106.781 29.2167C106.993 29.0053 107.111 28.7186 107.111 28.4197C107.111 28.1208 106.993 27.8341 106.781 27.6227C106.57 27.4114 106.283 27.2926 105.985 27.2926L103.806 27.2926L103.806 29.5468L105.985 29.5468Z" fill="#3792E7" fill-opacity="1.000000" fill-rule="nonzero"/>
	<path id="Vector" d="M114.504 32.532L113.615 32.532L113.111 31.3241L110.111 31.3241L109.607 32.532L108.718 32.532L111.248 26.4709L111.971 26.4709L114.504 32.532ZM112.77 30.5025L111.614 27.7438L110.46 30.5025L112.77 30.5025Z" fill="#3792E7" fill-opacity="1.000000" fill-rule="nonzero"/>
	<path id="Vector" d="M121.276 32.532L118.286 32.532L118.286 26.4709L120.945 26.4709C121.156 26.4693 121.365 26.5137 121.558 26.601C121.744 26.6871 121.912 26.809 122.052 26.9596C122.246 27.1751 122.374 27.442 122.42 27.7284C122.465 28.0147 122.427 28.3082 122.31 28.5734L122.182 28.8571C122.235 28.8969 122.291 28.9337 122.348 28.9675C122.422 29.0095 122.492 29.0584 122.557 29.1133C122.769 29.2954 122.939 29.5215 123.056 29.776C123.172 30.0305 123.232 30.3073 123.23 30.5872C123.232 30.8712 123.17 31.1521 123.049 31.4089C122.932 31.6588 122.763 31.8805 122.553 32.0591C122.202 32.3716 121.746 32.5404 121.276 32.532ZM120.935 28.6384C121.024 28.6402 121.113 28.6237 121.195 28.5898C121.278 28.5559 121.352 28.5054 121.414 28.4414C121.539 28.3146 121.609 28.1436 121.609 27.9655C121.609 27.7874 121.539 27.6165 121.414 27.4897C121.352 27.4257 121.278 27.3751 121.195 27.3412C121.113 27.3073 121.024 27.2908 120.935 27.2926L119.098 27.2926L119.098 28.6384L120.935 28.6384ZM121.276 31.7143C121.575 31.7143 121.862 31.5955 122.073 31.3842C122.284 31.1728 122.403 30.8861 122.403 30.5872C122.403 30.2883 122.284 30.0016 122.073 29.7902C121.862 29.5788 121.575 29.4601 121.276 29.4601L119.098 29.4601L119.098 31.7143L121.276 31.7143Z" fill="#3792E7" fill-opacity="1.000000" fill-rule="nonzero"/>
	<path id="Vector" d="M130.051 32.532C129.515 32.5381 128.988 32.3963 128.527 32.1222C128.074 31.8566 127.697 31.4794 127.432 31.0266C127.163 30.5639 127.022 30.0384 127.022 29.5034C127.022 28.9685 127.163 28.443 127.432 27.9803C127.697 27.5275 128.074 27.1503 128.527 26.8847C128.989 26.6162 129.515 26.4748 130.049 26.4748C130.584 26.4748 131.11 26.6162 131.572 26.8847C132.024 27.1506 132.4 27.5277 132.665 27.9803C132.935 28.4439 133.077 28.9709 133.077 29.5074C133.077 30.0439 132.935 30.5708 132.665 31.0345C132.4 31.4873 132.023 31.8645 131.57 32.13C131.11 32.4008 130.585 32.5399 130.051 32.532ZM130.051 31.7143C130.442 31.7187 130.826 31.6158 131.162 31.4167C131.492 31.2213 131.767 30.9462 131.962 30.6167C132.157 30.2784 132.259 29.8949 132.259 29.5044C132.259 29.114 132.157 28.7304 131.962 28.3921C131.767 28.0616 131.492 27.7858 131.162 27.5901C130.824 27.3953 130.441 27.2927 130.05 27.2927C129.66 27.2927 129.277 27.3953 128.939 27.5901C128.608 27.7852 128.333 28.0612 128.139 28.3921C127.945 28.7308 127.843 29.1142 127.843 29.5044C127.843 29.8946 127.945 30.278 128.139 30.6167C128.334 30.9466 128.609 31.2218 128.939 31.4167C129.275 31.6158 129.66 31.7187 130.051 31.7143Z" fill="#3792E7" fill-opacity="1.000000" fill-rule="nonzero"/>
	<path id="Vector" d="M140.239 33.4443L139.42 33.4443L139.42 32.532L135.002 32.532L135.002 33.4443L134.182 33.4443L134.182 31.7143L134.773 31.7143C135 31.521 135.183 31.2811 135.309 31.0108C135.452 30.7133 135.524 30.3871 135.522 30.0571L135.522 26.4709L139.402 26.4709L139.402 31.7143L140.239 31.7143L140.239 33.4443ZM138.575 31.7143L138.575 27.2906L136.349 27.2906L136.349 30.0493C136.349 30.8059 136.197 31.3596 135.894 31.7064L138.575 31.7143Z" fill="#3792E7" fill-opacity="1.000000" fill-rule="nonzero"/>
	<path id="Vector" d="M146.347 32.532L145.528 32.532L145.528 29.4581L142.195 29.4581L142.195 32.532L141.376 32.532L141.376 26.4709L142.195 26.4709L142.195 28.6384L145.528 28.6384L145.528 26.4709L146.347 26.4709L146.347 32.532Z" fill="#3792E7" fill-opacity="1.000000" fill-rule="nonzero"/>
	<path id="Vector" d="M150.656 32.532C150.119 32.5381 149.592 32.3963 149.131 32.1222C148.678 31.8588 148.299 31.4845 148.03 31.0345C147.763 30.5713 147.622 30.046 147.622 29.5113C147.622 28.9766 147.763 28.4513 148.03 27.9882C148.297 27.5357 148.674 27.1587 149.127 26.8926C149.589 26.6241 150.115 26.4826 150.65 26.4826C151.184 26.4826 151.71 26.6241 152.172 26.8926C152.625 27.1582 153.002 27.5354 153.267 27.9882C153.535 28.4513 153.675 28.9766 153.675 29.5113C153.675 30.046 153.535 30.5713 153.267 31.0345C153.002 31.4873 152.625 31.8645 152.172 32.13C151.713 32.4005 151.188 32.5395 150.656 32.532ZM150.656 31.7143C151.046 31.7187 151.43 31.6158 151.766 31.4167C152.095 31.2207 152.37 30.9458 152.566 30.6167C152.761 30.2784 152.864 29.8949 152.864 29.5044C152.864 29.114 152.761 28.7304 152.566 28.3921C152.371 28.0621 152.096 27.7864 151.766 27.5901C151.428 27.3953 151.045 27.2927 150.654 27.2927C150.264 27.2927 149.881 27.3953 149.543 27.5901C149.212 27.7852 148.937 28.0612 148.743 28.3921C148.549 28.7308 148.447 29.1142 148.447 29.5044C148.447 29.8946 148.549 30.278 148.743 30.6167C148.938 30.9466 149.213 31.2218 149.543 31.4167C149.879 31.6158 150.264 31.7187 150.656 31.7143Z" fill="#3792E7" fill-opacity="1.000000" fill-rule="nonzero"/>
	<path id="Vector" d="M160.857 32.532L160.046 32.532L160.046 27.9901L157.934 30.8236L155.826 27.9823L155.826 32.532L155.007 32.532L155.007 26.4709L155.712 26.4709L157.924 29.4581L160.134 26.4788L160.857 26.4788L160.857 32.532Z" fill="#3792E7" fill-opacity="1.000000" fill-rule="nonzero"/>
	<path id="Vector" d="M170.759 32.532L169.938 32.532L169.938 27.9901L167.826 30.8236L165.718 27.9823L165.718 32.532L164.899 32.532L164.899 26.4709L165.618 26.4709L167.826 29.4581L170.034 26.4788L170.759 26.4788L170.759 32.532Z" fill="#3792E7" fill-opacity="1.000000" fill-rule="nonzero"/>
	<path id="Vector" d="M176.097 32.532L172.227 32.532L172.227 26.4709L176.097 26.4709L176.097 27.2906L173.046 27.2906L173.046 28.6365L176.095 28.6365L176.095 29.4581L173.046 29.4581L173.046 31.7123L176.095 31.7123L176.097 32.532Z" fill="#3792E7" fill-opacity="1.000000" fill-rule="nonzero"/>
	<path id="Vector" d="M180.346 32.532C179.81 32.5384 179.282 32.3965 178.821 32.1222C178.368 31.8566 177.99 31.4795 177.724 31.0266C177.457 30.5634 177.317 30.0381 177.317 29.5034C177.317 28.9687 177.457 28.4435 177.724 27.9803C177.99 27.5274 178.368 27.1503 178.821 26.8847C179.282 26.6103 179.81 26.4685 180.346 26.4749C180.747 26.4695 181.145 26.5459 181.516 26.6995C181.93 26.8903 182.303 27.1577 182.617 27.4877L182.04 28.0788C181.801 27.8255 181.516 27.6196 181.201 27.4719C180.886 27.3425 180.546 27.2869 180.206 27.3094C179.866 27.332 179.536 27.432 179.241 27.602C178.911 27.7971 178.635 28.073 178.441 28.4039C178.248 28.7426 178.146 29.1261 178.146 29.5163C178.146 29.9064 178.248 30.2899 178.441 30.6286C178.636 30.9584 178.911 31.2336 179.241 31.4286C179.536 31.5986 179.865 31.6987 180.205 31.7213C180.544 31.7438 180.884 31.6882 181.199 31.5586C181.511 31.4139 181.795 31.2136 182.036 30.9675L182.613 31.5429C182.299 31.8688 181.926 32.1323 181.514 32.3192C181.143 32.4691 180.746 32.5415 180.346 32.532Z" fill="#3792E7" fill-opacity="1.000000" fill-rule="nonzero"/>
	<path id="Vector" d="M186.547 32.532L185.726 32.532L185.726 27.2906L183.756 27.2906L183.756 26.4729L188.517 26.4729L188.517 27.2906L186.547 27.2906L186.547 32.532Z" fill="#3792E7" fill-opacity="1.000000" fill-rule="nonzero"/>
	<path id="Vector" d="M193.626 32.532L189.756 32.532L189.756 26.4709L193.626 26.4709L193.626 27.2906L190.577 27.2906L190.577 28.6365L193.628 28.6365L193.628 29.4581L190.577 29.4581L190.577 31.7123L193.628 31.7123L193.626 32.532Z" fill="#3792E7" fill-opacity="1.000000" fill-rule="nonzero"/>
	<path id="Vector" d="M195.502 32.532C195.437 32.5329 195.373 32.5206 195.313 32.4959C195.253 32.4712 195.198 32.4345 195.153 32.3882C195.084 32.3194 195.038 32.2319 195.019 32.1365C195 32.0412 195.01 31.9424 195.047 31.8527C195.085 31.763 195.148 31.6865 195.229 31.6327C195.31 31.5789 195.405 31.5504 195.502 31.5507C195.566 31.5494 195.63 31.5616 195.689 31.5863C195.749 31.6111 195.802 31.648 195.846 31.6946C195.915 31.7631 195.962 31.8503 195.98 31.9452C195.999 32.0402 195.99 32.1387 195.953 32.2282C195.916 32.3177 195.854 32.3944 195.773 32.4484C195.693 32.5025 195.599 32.5316 195.502 32.532ZM195.909 31.1842L195.09 31.1842L195.09 26.134L195.909 26.134L195.909 31.1842Z" fill="#3792E7" fill-opacity="1.000000" fill-rule="nonzero"/>
</svg>
