<svg width="20" height="21" viewBox="0 0 20 21" fill="none" xmlns="http://www.w3.org/2000/svg">
<path d="M12.5 4.33333C12.5 3.86662 12.5 3.63327 12.4092 3.45501C12.3293 3.29821 12.2018 3.17072 12.045 3.09083C11.8667 3 11.6334 3 11.1667 3H8.83333C8.36662 3 8.13327 3 7.95501 3.09083C7.79821 3.17072 7.67072 3.29821 7.59083 3.45501C7.5 3.63327 7.5 3.86662 7.5 4.33333V6.66667C7.5 7.13338 7.5 7.36673 7.40917 7.54499C7.32928 7.70179 7.20179 7.82928 7.04499 7.90917C6.86673 8 6.63338 8 6.16667 8H3.83333C3.36662 8 3.13327 8 2.95501 8.09083C2.79821 8.17072 2.67072 8.29821 2.59083 8.45501C2.5 8.63327 2.5 8.86662 2.5 9.33333V11.6667C2.5 12.1334 2.5 12.3667 2.59083 12.545C2.67072 12.7018 2.79821 12.8293 2.95501 12.9092C3.13327 13 3.36662 13 3.83333 13H6.16667C6.63338 13 6.86673 13 7.04499 13.0908C7.20179 13.1707 7.32928 13.2982 7.40917 13.455C7.5 13.6333 7.5 13.8666 7.5 14.3333V16.6667C7.5 17.1334 7.5 17.3667 7.59083 17.545C7.67072 17.7018 7.79821 17.8293 7.95501 17.9092C8.13327 18 8.36662 18 8.83333 18H11.1667C11.6334 18 11.8667 18 12.045 17.9092C12.2018 17.8293 12.3293 17.7018 12.4092 17.545C12.5 17.3667 12.5 17.1334 12.5 16.6667V14.3333C12.5 13.8666 12.5 13.6333 12.5908 13.455C12.6707 13.2982 12.7982 13.1707 12.955 13.0908C13.1333 13 13.3666 13 13.8333 13H16.1667C16.6334 13 16.8667 13 17.045 12.9092C17.2018 12.8293 17.3293 12.7018 17.4092 12.545C17.5 12.3667 17.5 12.1334 17.5 11.6667V9.33333C17.5 8.86662 17.5 8.63327 17.4092 8.45501C17.3293 8.29821 17.2018 8.17072 17.045 8.09083C16.8667 8 16.6334 8 16.1667 8L13.8333 8C13.3666 8 13.1333 8 12.955 7.90917C12.7982 7.82928 12.6707 7.70179 12.5908 7.54499C12.5 7.36673 12.5 7.13338 12.5 6.66667V4.33333Z" stroke="#237AE0" stroke-width="2" stroke-linecap="round" stroke-linejoin="round"/>
</svg>
