<svg display="none" xmlns="http://www.w3.org/2000/svg">

	<symbol id="search" viewBox="0 0 20.004 20.0041">
		<path
			d="M19 19L14.65 14.65M9 17C4.58167 17 1 13.4183 1 9C1 4.58173 4.58167 1 9 1C13.4183 1 17 4.58173 17 9C17 13.4183 13.4183 17 9 17Z"
			stroke="#FFFFFF" stroke-opacity="1.000000" stroke-width="2.000000" stroke-linejoin="round"
			stroke-linecap="round" />
	</symbol>

	<symbol id="burger" viewBox="0 0 24 24">
		<path d="M3 12H21M3 6H21M3 18H21" stroke-width="2" stroke-linecap="round" stroke-linejoin="round" />
	</symbol>

	<symbol id="favorite" viewBox="0 0 20 20">
		<path
			d="M13.4259 2.5C16.3611 2.5 18.3334 5.29375 18.3334 7.9C18.3334 13.1781 10.1482 17.5 10 17.5C9.85187 17.5 1.66669 13.1781 1.66669 7.9C1.66669 5.29375 3.63891 2.5 6.5741 2.5C8.25928 2.5 9.36113 3.35312 10 4.10312C10.6389 3.35312 11.7408 2.5 13.4259 2.5Z"
			stroke-width="2" stroke-linecap="round" stroke-linejoin="round" />
	</symbol>



	<symbol id="filter" viewBox="0 0 20 20">
		<path
			d="M2.5 6.66667L12.5 6.66667M12.5 6.66667C12.5 8.04738 13.6193 9.16667 15 9.16667C16.3807 9.16667 17.5 8.04738 17.5 6.66667C17.5 5.28596 16.3807 4.16667 15 4.16667C13.6193 4.16667 12.5 5.28596 12.5 6.66667ZM7.5 13.3333L17.5 13.3333M7.5 13.3333C7.5 14.714 6.38071 15.8333 5 15.8333C3.61929 15.8333 2.5 14.714 2.5 13.3333C2.5 11.9526 3.61929 10.8333 5 10.8333C6.38071 10.8333 7.5 11.9526 7.5 13.3333Z"
			stroke-linecap="round" stroke-linejoin="round" />
	</symbol>

	<symbol id="close" viewBox="0 0 24 24">
		<path d="M18 6L6 18M6 6L18 18" stroke-width="2" stroke-linecap="round" stroke-linejoin="round" />
	</symbol>

	<symbol id="arrow-bottom" viewBox="0 0 20 21">
		<path d="M5 8L10 13L15 8" stroke-width="2" stroke-linecap="round" stroke-linejoin="round" />
	</symbol>

	<symbol id="phone" viewBox="0 0 20 20">
		<path
			d="M6.98356 7.37769C7.56356 8.58571 8.35422 9.71791 9.35553 10.7192C10.3568 11.7205 11.4891 12.5112 12.6971 13.0912C12.801 13.1411 12.8529 13.166 12.9187 13.1852C13.1523 13.2533 13.4392 13.2044 13.637 13.0627C13.6927 13.0228 13.7403 12.9752 13.8356 12.8799C14.1269 12.5886 14.2726 12.4429 14.4191 12.3477C14.9715 11.9885 15.6837 11.9885 16.2361 12.3477C16.3825 12.4429 16.5282 12.5886 16.8196 12.8799L16.9819 13.0423C17.4248 13.4852 17.6462 13.7066 17.7665 13.9445C18.0058 14.4174 18.0058 14.976 17.7665 15.4489C17.6462 15.6868 17.4248 15.9082 16.9819 16.3511L16.8506 16.4824C16.4092 16.9238 16.1886 17.1445 15.8885 17.313C15.5556 17.5 15.0385 17.6345 14.6567 17.6333C14.3126 17.6323 14.0774 17.5656 13.607 17.4321C11.0792 16.7146 8.69387 15.3609 6.70388 13.3709C4.7139 11.3809 3.36017 8.99559 2.6427 6.46776C2.50919 5.99739 2.44244 5.7622 2.44141 5.41808C2.44028 5.03623 2.57475 4.51915 2.76176 4.18623C2.9303 3.8862 3.15098 3.66553 3.59233 3.22417L3.72369 3.09281C4.16656 2.64994 4.388 2.42851 4.62581 2.30822C5.09878 2.069 5.65734 2.069 6.1303 2.30822C6.36812 2.42851 6.58955 2.64994 7.03242 3.09281L7.19481 3.2552C7.48615 3.54654 7.63182 3.69221 7.72706 3.83869C8.08622 4.3911 8.08622 5.10325 7.72706 5.65566C7.63182 5.80214 7.48615 5.94781 7.19481 6.23915C7.09955 6.33441 7.05192 6.38204 7.01206 6.43772C6.87038 6.63558 6.82146 6.92246 6.88957 7.15609C6.90873 7.22183 6.93367 7.27378 6.98356 7.37769Z"
			stroke-width="2" stroke-linecap="round" stroke-linejoin="round" />
	</symbol>


</svg>