<svg display="none" xmlns="http://www.w3.org/2000/svg">

	<symbol id="search" viewBox="0 0 20.004 20.0041">
		<path
			d="M19 19L14.65 14.65M9 17C4.58167 17 1 13.4183 1 9C1 4.58173 4.58167 1 9 1C13.4183 1 17 4.58173 17 9C17 13.4183 13.4183 17 9 17Z"
			stroke-opacity="1.000000" stroke-width="2.000000" stroke-linejoin="round" stroke-linecap="round" />
	</symbol>

	<symbol id="burger" viewBox="0 0 24 24">
		<path d="M3 12H21M3 6H21M3 18H21" stroke-width="2" stroke-linecap="round" stroke-linejoin="round" />
	</symbol>

	<symbol id="favorite" viewBox="0 0 20 20">
		<path
			d="M13.4259 2.5C16.3611 2.5 18.3334 5.29375 18.3334 7.9C18.3334 13.1781 10.1482 17.5 10 17.5C9.85187 17.5 1.66669 13.1781 1.66669 7.9C1.66669 5.29375 3.63891 2.5 6.5741 2.5C8.25928 2.5 9.36113 3.35312 10 4.10312C10.6389 3.35312 11.7408 2.5 13.4259 2.5Z"
			stroke-width="2" stroke-linecap="round" stroke-linejoin="round" />
	</symbol>


	<symbol id="filter" viewBox="0 0 20 20">
		<path
			d="M2.5 6.66667L12.5 6.66667M12.5 6.66667C12.5 8.04738 13.6193 9.16667 15 9.16667C16.3807 9.16667 17.5 8.04738 17.5 6.66667C17.5 5.28596 16.3807 4.16667 15 4.16667C13.6193 4.16667 12.5 5.28596 12.5 6.66667ZM7.5 13.3333L17.5 13.3333M7.5 13.3333C7.5 14.714 6.38071 15.8333 5 15.8333C3.61929 15.8333 2.5 14.714 2.5 13.3333C2.5 11.9526 3.61929 10.8333 5 10.8333C6.38071 10.8333 7.5 11.9526 7.5 13.3333Z"
			stroke-linecap="round" stroke-linejoin="round" />
	</symbol>

	<symbol id="close" viewBox="0 0 24 24">
		<path d="M18 6L6 18M6 6L18 18" stroke-width="2" stroke-linecap="round" stroke-linejoin="round" />
	</symbol>

	<symbol id="close2" viewBox="0 0 20 21">
		<path
			d="M12.5001 8.00008L7.50008 13.0001M7.50008 8.00008L12.5001 13.0001M18.3334 10.5001C18.3334 15.1025 14.6025 18.8334 10.0001 18.8334C5.39771 18.8334 1.66675 15.1025 1.66675 10.5001C1.66675 5.89771 5.39771 2.16675 10.0001 2.16675C14.6025 2.16675 18.3334 5.89771 18.3334 10.5001Z"
			stroke-width="2" stroke-linecap="round" stroke-linejoin="round" />
	</symbol>

	<symbol id="arrow-bottom" viewBox="0 0 20 21">
		<path d="M5 8L10 13L15 8" stroke-width="2" stroke-linecap="round" stroke-linejoin="round" />
	</symbol>

	<symbol id="arrow-left" viewBox="0 0 24 24">
		<path d="M15 18L9 12L15 6" stroke-width="1.3" stroke-linecap="round" stroke-linejoin="round" />
	</symbol>

	<symbol id="arrow-right" viewBox="0 0 24 24">
		<path d="M9 18L15 12L9 6" stroke-width="1.3" stroke-linecap="round" stroke-linejoin="round" />
	</symbol>

	<symbol id="prev" viewBox="0 0 20 20">
		<path d="M12.5 15L7.5 10L12.5 5" stroke-width="2" stroke-linecap="round" stroke-linejoin="round" />
	</symbol>

	<symbol id="next" viewBox="0 0 20 20">
		<path d="M7.5 15L12.5 10L7.5 5" stroke-width="2" stroke-linecap="round" stroke-linejoin="round" />
	</symbol>


	<symbol id="location" viewBox="0 0 20 21">
		<path
			d="M9.99992 11.3333C11.3806 11.3333 12.4999 10.214 12.4999 8.83332C12.4999 7.45261 11.3806 6.33332 9.99992 6.33332C8.61921 6.33332 7.49992 7.45261 7.49992 8.83332C7.49992 10.214 8.61921 11.3333 9.99992 11.3333Z"
			stroke-width="2" stroke-linecap="round" stroke-linejoin="round" />
		<path
			d="M9.99992 18.8333C13.3333 15.5 16.6666 12.5152 16.6666 8.83332C16.6666 5.15142 13.6818 2.16666 9.99992 2.16666C6.31802 2.16666 3.33325 5.15142 3.33325 8.83332C3.33325 12.5152 6.66659 15.5 9.99992 18.8333Z"
			stroke-width="2" stroke-linecap="round" stroke-linejoin="round" />
	</symbol>

	<symbol id="calendar" viewBox="0 0 20 21">
		<path
			d="M17.5 8.83332H2.5M13.3333 2.16666V5.49999M6.66667 2.16666V5.49999M6.5 18.8333H13.5C14.9001 18.8333 15.6002 18.8333 16.135 18.5608C16.6054 18.3212 16.9878 17.9387 17.2275 17.4683C17.5 16.9335 17.5 16.2335 17.5 14.8333V7.83332C17.5 6.43319 17.5 5.73313 17.2275 5.19835C16.9878 4.72794 16.6054 4.34549 16.135 4.10581C15.6002 3.83332 14.9001 3.83332 13.5 3.83332H6.5C5.09987 3.83332 4.3998 3.83332 3.86502 4.10581C3.39462 4.34549 3.01217 4.72794 2.77248 5.19835C2.5 5.73313 2.5 6.43319 2.5 7.83332V14.8333C2.5 16.2335 2.5 16.9335 2.77248 17.4683C3.01217 17.9387 3.39462 18.3212 3.86502 18.5608C4.3998 18.8333 5.09987 18.8333 6.5 18.8333Z"
			stroke-width="2" stroke-linecap="round" stroke-linejoin="round" />
	</symbol>


	<symbol id="phone" viewBox="0 0 20 20">
		<path
			d="M6.98356 7.37769C7.56356 8.58571 8.35422 9.71791 9.35553 10.7192C10.3568 11.7205 11.4891 12.5112 12.6971 13.0912C12.801 13.1411 12.8529 13.166 12.9187 13.1852C13.1523 13.2533 13.4392 13.2044 13.637 13.0627C13.6927 13.0228 13.7403 12.9752 13.8356 12.8799C14.1269 12.5886 14.2726 12.4429 14.4191 12.3477C14.9715 11.9885 15.6837 11.9885 16.2361 12.3477C16.3825 12.4429 16.5282 12.5886 16.8196 12.8799L16.9819 13.0423C17.4248 13.4852 17.6462 13.7066 17.7665 13.9445C18.0058 14.4174 18.0058 14.976 17.7665 15.4489C17.6462 15.6868 17.4248 15.9082 16.9819 16.3511L16.8506 16.4824C16.4092 16.9238 16.1886 17.1445 15.8885 17.313C15.5556 17.5 15.0385 17.6345 14.6567 17.6333C14.3126 17.6323 14.0774 17.5656 13.607 17.4321C11.0792 16.7146 8.69387 15.3609 6.70388 13.3709C4.7139 11.3809 3.36017 8.99559 2.6427 6.46776C2.50919 5.99739 2.44244 5.7622 2.44141 5.41808C2.44028 5.03623 2.57475 4.51915 2.76176 4.18623C2.9303 3.8862 3.15098 3.66553 3.59233 3.22417L3.72369 3.09281C4.16656 2.64994 4.388 2.42851 4.62581 2.30822C5.09878 2.069 5.65734 2.069 6.1303 2.30822C6.36812 2.42851 6.58955 2.64994 7.03242 3.09281L7.19481 3.2552C7.48615 3.54654 7.63182 3.69221 7.72706 3.83869C8.08622 4.3911 8.08622 5.10325 7.72706 5.65566C7.63182 5.80214 7.48615 5.94781 7.19481 6.23915C7.09955 6.33441 7.05192 6.38204 7.01206 6.43772C6.87038 6.63558 6.82146 6.92246 6.88957 7.15609C6.90873 7.22183 6.93367 7.27378 6.98356 7.37769Z"
			stroke-width="2" stroke-linecap="round" stroke-linejoin="round" />
	</symbol>

	<symbol id="plus" viewBox="0 0 20 21">
		<path
			d="M12.5 4.33333C12.5 3.86662 12.5 3.63327 12.4092 3.45501C12.3293 3.29821 12.2018 3.17072 12.045 3.09083C11.8667 3 11.6334 3 11.1667 3H8.83333C8.36662 3 8.13327 3 7.95501 3.09083C7.79821 3.17072 7.67072 3.29821 7.59083 3.45501C7.5 3.63327 7.5 3.86662 7.5 4.33333V6.66667C7.5 7.13338 7.5 7.36673 7.40917 7.54499C7.32928 7.70179 7.20179 7.82928 7.04499 7.90917C6.86673 8 6.63338 8 6.16667 8H3.83333C3.36662 8 3.13327 8 2.95501 8.09083C2.79821 8.17072 2.67072 8.29821 2.59083 8.45501C2.5 8.63327 2.5 8.86662 2.5 9.33333V11.6667C2.5 12.1334 2.5 12.3667 2.59083 12.545C2.67072 12.7018 2.79821 12.8293 2.95501 12.9092C3.13327 13 3.36662 13 3.83333 13H6.16667C6.63338 13 6.86673 13 7.04499 13.0908C7.20179 13.1707 7.32928 13.2982 7.40917 13.455C7.5 13.6333 7.5 13.8666 7.5 14.3333V16.6667C7.5 17.1334 7.5 17.3667 7.59083 17.545C7.67072 17.7018 7.79821 17.8293 7.95501 17.9092C8.13327 18 8.36662 18 8.83333 18H11.1667C11.6334 18 11.8667 18 12.045 17.9092C12.2018 17.8293 12.3293 17.7018 12.4092 17.545C12.5 17.3667 12.5 17.1334 12.5 16.6667V14.3333C12.5 13.8666 12.5 13.6333 12.5908 13.455C12.6707 13.2982 12.7982 13.1707 12.955 13.0908C13.1333 13 13.3666 13 13.8333 13H16.1667C16.6334 13 16.8667 13 17.045 12.9092C17.2018 12.8293 17.3293 12.7018 17.4092 12.545C17.5 12.3667 17.5 12.1334 17.5 11.6667V9.33333C17.5 8.86662 17.5 8.63327 17.4092 8.45501C17.3293 8.29821 17.2018 8.17072 17.045 8.09083C16.8667 8 16.6334 8 16.1667 8L13.8333 8C13.3666 8 13.1333 8 12.955 7.90917C12.7982 7.82928 12.6707 7.70179 12.5908 7.54499C12.5 7.36673 12.5 7.13338 12.5 6.66667V4.33333Z"
			stroke-width="2" stroke-linecap="round" stroke-linejoin="round" />
	</symbol>

	<symbol id="star" viewBox="0 0 16 16">
		<path
			d="M7.52169 2.30223C7.67534 1.99094 7.75217 1.83529 7.85647 1.78556C7.94722 1.7423 8.05264 1.7423 8.14339 1.78556C8.24769 1.83529 8.32452 1.99094 8.47817 2.30223L9.93596 5.25554C9.98132 5.34744 10.004 5.39339 10.0372 5.42907C10.0665 5.46066 10.1017 5.48625 10.1408 5.50443C10.185 5.52497 10.2357 5.53238 10.3371 5.5472L13.5979 6.02382C13.9413 6.07401 14.113 6.09911 14.1924 6.18298C14.2616 6.25595 14.2941 6.35622 14.2809 6.45587C14.2658 6.57041 14.1415 6.69147 13.8929 6.93361L11.5342 9.23097C11.4607 9.30258 11.4239 9.33839 11.4002 9.38099C11.3792 9.41872 11.3657 9.46016 11.3605 9.50302C11.3547 9.55143 11.3633 9.60202 11.3807 9.70318L11.9372 12.9481C11.9959 13.2903 12.0253 13.4615 11.9701 13.563C11.9221 13.6514 11.8368 13.7133 11.738 13.7317C11.6243 13.7527 11.4707 13.6719 11.1633 13.5103L8.24817 11.9772C8.15734 11.9295 8.11193 11.9056 8.06408 11.8962C8.02172 11.8879 7.97814 11.8879 7.93578 11.8962C7.88793 11.9056 7.84252 11.9295 7.75169 11.9772L4.83653 13.5103C4.5292 13.6719 4.37553 13.7527 4.2619 13.7317C4.16304 13.7133 4.07773 13.6514 4.02974 13.563C3.97459 13.4615 4.00394 13.2903 4.06263 12.9481L4.61918 9.70318C4.63653 9.60202 4.6452 9.55143 4.63933 9.50302C4.63413 9.46016 4.62066 9.41872 4.59966 9.38099C4.57593 9.33839 4.53917 9.30258 4.46564 9.23097L2.10696 6.93361C1.85836 6.69147 1.73406 6.57041 1.71894 6.45587C1.70578 6.35622 1.73829 6.25595 1.80742 6.18298C1.88688 6.09911 2.05857 6.07401 2.40195 6.02382L5.66279 5.5472C5.7642 5.53238 5.81491 5.52497 5.85906 5.50443C5.89816 5.48625 5.93336 5.46066 5.96271 5.42907C5.99586 5.39339 6.01854 5.34744 6.0639 5.25554L7.52169 2.30223Z" />
	</symbol>


</svg>